<![CDATA[<mxfile host="app.diagrams.net" modified="2023-06-15T10:00:00.000Z" agent="5.0 (Windows)" etag="abc123" version="14.7.7" type="device">
  <diagram id="prtHgNgQTEPvFCAcTncT" name="Page-1">
    <mxGraphModel dx="1422" dy="798" grid="1" gridSize="10" guides="1" tooltips="1" connect="1" arrows="1" fold="1" page="1" pageScale="1" pageWidth="827" pageHeight="1169" math="0" shadow="0">
      <root>
        <mxCell id="0" />
        <mxCell id="1" parent="0" />
        <mxCell id="2" value="AWS Cloud" style="points=[[0,0],[0.25,0],[0.5,0],[0.75,0],[1,0],[1,0.25],[1,0.5],[1,0.75],[1,1],[0.75,1],[0.5,1],[0.25,1],[0,1],[0,0.75],[0,0.5],[0,0.25]];outlineConnect=0;gradientColor=none;html=1;whiteSpace=wrap;fontSize=12;fontStyle=0;container=1;pointerEvents=0;collapsible=0;recursiveResize=0;shape=mxgraph.aws4.group;grIcon=mxgraph.aws4.group_aws_cloud;strokeColor=#232F3E;fillColor=none;verticalAlign=top;align=left;spacingLeft=30;fontColor=#232F3E;dashed=0;" vertex="1" parent="1">
          <mxGeometry x="40" y="40" width="680" height="560" as="geometry" />
        </mxCell>
        <mxCell id="3" value="VPC" style="points=[[0,0],[0.25,0],[0.5,0],[0.75,0],[1,0],[1,0.25],[1,0.5],[1,0.75],[1,1],[0.75,1],[0.5,1],[0.25,1],[0,1],[0,0.75],[0,0.5],[0,0.25]];outlineConnect=0;gradientColor=none;html=1;whiteSpace=wrap;fontSize=12;fontStyle=0;container=1;pointerEvents=0;collapsible=0;recursiveResize=0;shape=mxgraph.aws4.group;grIcon=mxgraph.aws4.group_vpc;strokeColor=#248814;fillColor=none;verticalAlign=top;align=left;spacingLeft=30;fontColor=#AAB7B8;dashed=0;" vertex="1" parent="2">
          <mxGeometry x="20" y="40" width="640" height="500" as="geometry" />
        </mxCell>
        <mxCell id="4" value="Zone de disponibilité eu-west-3a" style="fillColor=none;strokeColor=#147EBA;dashed=1;verticalAlign=top;fontStyle=0;fontColor=#147EBA;" vertex="1" parent="3">
          <mxGeometry x="20" y="40" width="380" height="440" as="geometry" />
        </mxCell>
        <mxCell id="5" value="Zone de disponibilité eu-west-3b" style="fillColor=none;strokeColor=#147EBA;dashed=1;verticalAlign=top;fontStyle=0;fontColor=#147EBA;" vertex="1" parent="3">
          <mxGeometry x="420" y="40" width="200" height="440" as="geometry" />
        </mxCell>
        <mxCell id="6" value="EC2 Instance&lt;br&gt;t2.micro&lt;br&gt;Java/Tomcat&lt;br&gt;Backend API" style="outlineConnect=0;dashed=0;verticalLabelPosition=bottom;verticalAlign=top;align=center;html=1;shape=mxgraph.aws3.ec2;fillColor=#F58534;gradientColor=none;" vertex="1" parent="4">
          <mxGeometry x="60" y="80" width="76.5" height="93" as="geometry" />
        </mxCell>
        <mxCell id="7" value="EC2 Instance&lt;br&gt;t2.micro&lt;br&gt;Monitoring&lt;br&gt;Docker Containers" style="outlineConnect=0;dashed=0;verticalLabelPosition=bottom;verticalAlign=top;align=center;html=1;shape=mxgraph.aws3.ec2;fillColor=#F58534;gradientColor=none;" vertex="1" parent="4">
          <mxGeometry x="60" y="240" width="76.5" height="93" as="geometry" />
        </mxCell>
        <mxCell id="8" value="Conteneurs Docker" style="fillColor=#dae8fc;strokeColor=#6c8ebf;dashed=1;verticalAlign=top;fontStyle=0;fontColor=#147EBA;" vertex="1" parent="4">
          <mxGeometry x="180" y="200" width="180" height="220" as="geometry" />
        </mxCell>
        <mxCell id="9" value="Prometheus" style="shape=image;verticalLabelPosition=bottom;labelBackgroundColor=#ffffff;verticalAlign=top;aspect=fixed;imageAspect=0;image=data:image/svg+xml,PHN2ZyB4bWxucz0iaHR0cDovL3d3dy53My5vcmcvMjAwMC9zdmciIHZpZXdCb3g9IjAgMCAyNTYgMjU2Ij48cGF0aCBmaWxsPSIjRTc1MjREIiBkPSJNMTI4IDI1NmM3MC43IDAgMTI4LTU3LjMgMTI4LTEyOFMxOTguNyAwIDEyOCAwIDAgNTcuMyAwIDEyOHM1Ny4zIDEyOCAxMjggMTI4Ii8+PHBhdGggZmlsbD0iI0ZGRiIgZD0iTTEyOCAyNTZjNzAuNyAwIDEyOC01Ny4zIDEyOC0xMjhTMTk4LjcgMCAxMjggMCAwIDU3LjMgMCAxMjhzNTcuMyAxMjggMTI4IDEyOHptMC0yMTkuNmMtNTAuNiAwLTkxLjYgNDEtOTEuNiA5MS42czkxLjYgOTEuNiA5MS42IDkxLjYgOTEuNi00MSA5MS42LTkxLjYtNDEtOTEuNi05MS42LTkxLjZ6Ii8+PC9zdmc+;" vertex="1" parent="8">
          <mxGeometry x="20" y="40" width="60" height="60" as="geometry" />
        </mxCell>
        <mxCell id="10" value="Grafana" style="shape=image;verticalLabelPosition=bottom;labelBackgroundColor=#ffffff;verticalAlign=top;aspect=fixed;imageAspect=0;image=data:image/svg+xml,PHN2ZyB4bWxucz0iaHR0cDovL3d3dy53My5vcmcvMjAwMC9zdmciIHZpZXdCb3g9IjAgMCAyNTYgMjU2Ij48cGF0aCBmaWxsPSIjRjA1QTI4IiBkPSJNMTI4IDI1NmM3MC43IDAgMTI4LTU3LjMgMTI4LTEyOFMxOTguNyAwIDEyOCAwIDAgNTcuMyAwIDEyOHM1Ny4zIDEyOCAxMjggMTI4Ii8+PHBhdGggZmlsbD0iI0ZGRiIgZD0iTTEyOCAyNTZjNzAuNyAwIDEyOC01Ny4zIDEyOC0xMjhTMTk4LjcgMCAxMjggMCAwIDU3LjMgMCAxMjhzNTcuMyAxMjggMTI4IDEyOHptMC0yMTkuNmMtNTAuNiAwLTkxLjYgNDEtOTEuNiA5MS42czkxLjYgOTEuNiA5MS42IDkxLjYgOTEuNi00MSA5MS42LTkxLjYtNDEtOTEuNi05MS42LTkxLjZ6Ii8+PC9zdmc+;" vertex="1" parent="8">
          <mxGeometry x="100" y="40" width="60" height="60" as="geometry" />
        </mxCell>
        <mxCell id="11" value="SonarQube" style="shape=image;verticalLabelPosition=bottom;labelBackgroundColor=#ffffff;verticalAlign=top;aspect=fixed;imageAspect=0;image=data:image/svg+xml,PHN2ZyB4bWxucz0iaHR0cDovL3d3dy53My5vcmcvMjAwMC9zdmciIHZpZXdCb3g9IjAgMCAyNTYgMjU2Ij48cGF0aCBmaWxsPSIjNEU5QkNEIiBkPSJNMTI4IDI1NmM3MC43IDAgMTI4LTU3LjMgMTI4LTEyOFMxOTguNyAwIDEyOCAwIDAgNTcuMyAwIDEyOHM1Ny4zIDEyOCAxMjggMTI4Ii8+PHBhdGggZmlsbD0iI0ZGRiIgZD0iTTEyOCAyNTZjNzAuNyAwIDEyOC01Ny4zIDEyOC0xMjhTMTk4LjcgMCAxMjggMCAwIDU3LjMgMCAxMjhzNTcuMyAxMjggMTI4IDEyOHptMC0yMTkuNmMtNTAuNiAwLTkxLjYgNDEtOTEuNiA5MS42czkxLjYgOTEuNiA5MS42IDkxLjYgOTEuNi00MSA5MS42LTkxLjYtNDEtOTEuNi05MS42LTkxLjZ6Ii8+PC9zdmc+;" vertex="1" parent="8">
          <mxGeometry x="20" y="140" width="60" height="60" as="geometry" />
        </mxCell>
        <mxCell id="12" value="React Native" style="shape=image;verticalLabelPosition=bottom;labelBackgroundColor=#ffffff;verticalAlign=top;aspect=fixed;imageAspect=0;image=data:image/svg+xml,PHN2ZyB4bWxucz0iaHR0cDovL3d3dy53My5vcmcvMjAwMC9zdmciIHZpZXdCb3g9IjAgMCAyNTYgMjU2Ij48cGF0aCBmaWxsPSIjNjFEQUZCIiBkPSJNMTI4IDI1NmM3MC43IDAgMTI4LTU3LjMgMTI4LTEyOFMxOTguNyAwIDEyOCAwIDAgNTcuMyAwIDEyOHM1Ny4zIDEyOCAxMjggMTI4Ii8+PHBhdGggZmlsbD0iI0ZGRiIgZD0iTTEyOCAyNTZjNzAuNyAwIDEyOC01Ny4zIDEyOC0xMjhTMTk4LjcgMCAxMjggMCAwIDU3LjMgMCAxMjhzNTcuMyAxMjggMTI4IDEyOHptMC0yMTkuNmMtNTAuNiAwLTkxLjYgNDEtOTEuNiA5MS42czkxLjYgOTEuNiA5MS42IDkxLjYgOTEuNi00MSA5MS42LTkxLjYtNDEtOTEuNi05MS42LTkxLjZ6Ii8+PC9zdmc+;" vertex="1" parent="8">
          <mxGeometry x="100" y="140" width="60" height="60" as="geometry" />
        </mxCell>
        <mxCell id="13" value="Sous-réseau RDS&lt;br&gt;(Requis par AWS)" style="points=[[0,0],[0.25,0],[0.5,0],[0.75,0],[1,0],[1,0.25],[1,0.5],[1,0.75],[1,1],[0.75,1],[0.5,1],[0.25,1],[0,1],[0,0.75],[0,0.5],[0,0.25]];outlineConnect=0;gradientColor=none;html=1;whiteSpace=wrap;fontSize=12;fontStyle=0;container=1;pointerEvents=0;collapsible=0;recursiveResize=0;shape=mxgraph.aws4.group;grIcon=mxgraph.aws4.group_security_group;grStroke=0;strokeColor=#147EBA;fillColor=#E6F2F8;verticalAlign=top;align=left;spacingLeft=30;fontColor=#147EBA;dashed=0;" vertex="1" parent="5">
          <mxGeometry x="20" y="80" width="160" height="120" as="geometry" />
        </mxCell>
        <mxCell id="14" value="RDS MySQL&lt;br&gt;db.t3.micro" style="outlineConnect=0;dashed=0;verticalLabelPosition=bottom;verticalAlign=top;align=center;html=1;shape=mxgraph.aws3.rds;fillColor=#2E73B8;gradientColor=none;" vertex="1" parent="3">
          <mxGeometry x="480" y="240" width="72" height="81" as="geometry" />
        </mxCell>
        <mxCell id="15" value="S3 Bucket&lt;br&gt;Stockage médias&lt;br&gt;et artefacts" style="outlineConnect=0;dashed=0;verticalLabelPosition=bottom;verticalAlign=top;align=center;html=1;shape=mxgraph.aws3.s3;fillColor=#E05243;gradientColor=none;" vertex="1" parent="3">
          <mxGeometry x="280" y="400" width="76.5" height="93" as="geometry" />
        </mxCell>
        <mxCell id="16" value="" style="edgeStyle=orthogonalEdgeStyle;rounded=0;orthogonalLoop=1;jettySize=auto;html=1;" edge="1" parent="3" source="6" target="14">
          <mxGeometry relative="1" as="geometry" />
        </mxCell>
        <mxCell id="17" value="" style="edgeStyle=orthogonalEdgeStyle;rounded=0;orthogonalLoop=1;jettySize=auto;html=1;" edge="1" parent="3" source="6" target="15">
          <mxGeometry relative="1" as="geometry">
            <Array as="points">
              <mxPoint x="98" y="360" />
              <mxPoint x="318" y="360" />
            </Array>
          </mxGeometry>
        </mxCell>
        <mxCell id="18" value="" style="edgeStyle=orthogonalEdgeStyle;rounded=0;orthogonalLoop=1;jettySize=auto;html=1;dashed=1;" edge="1" parent="3" source="7" target="6">
          <mxGeometry relative="1" as="geometry" />
        </mxCell>
        <mxCell id="19" value="" style="edgeStyle=orthogonalEdgeStyle;rounded=0;orthogonalLoop=1;jettySize=auto;html=1;dashed=1;" edge="1" parent="3" source="12" target="6">
          <mxGeometry relative="1" as="geometry" />
        </mxCell>
        <mxCell id="20" value="GitHub" style="points=[[0,0],[0.25,0],[0.5,0],[0.75,0],[1,0],[1,0.25],[1,0.5],[1,0.75],[1,1],[0.75,1],[0.5,1],[0.25,1],[0,1],[0,0.75],[0,0.5],[0,0.25]];outlineConnect=0;gradientColor=none;html=1;whiteSpace=wrap;fontSize=12;fontStyle=0;container=1;pointerEvents=0;collapsible=0;recursiveResize=0;shape=mxgraph.aws4.group;grIcon=mxgraph.aws4.group_corporate_data_center;strokeColor=#5A6C86;fillColor=#E6F2F8;verticalAlign=top;align=left;spacingLeft=30;fontColor=#5A6C86;dashed=0;" vertex="1" parent="1">
          <mxGeometry x="40" y="640" width="200" height="160" as="geometry" />
        </mxCell>
        <mxCell id="21" value="Repository" style="shape=image;verticalLabelPosition=bottom;labelBackgroundColor=#ffffff;verticalAlign=top;aspect=fixed;imageAspect=0;image=data:image/svg+xml,PHN2ZyB4bWxucz0iaHR0cDovL3d3dy53My5vcmcvMjAwMC9zdmciIHZpZXdCb3g9IjAgMCAyNTYgMjU2Ij48cGF0aCBmaWxsPSIjMjQyOTJlIiBkPSJNMTI4IDI1NmM3MC43IDAgMTI4LTU3LjMgMTI4LTEyOFMxOTguNyAwIDEyOCAwIDAgNTcuMyAwIDEyOHM1Ny4zIDEyOCAxMjggMTI4Ii8+PHBhdGggZmlsbD0iI0ZGRiIgZD0iTTEyOCAyNTZjNzAuNyAwIDEyOC01Ny4zIDEyOC0xMjhTMTk4LjcgMCAxMjggMCAwIDU3LjMgMCAxMjhzNTcuMyAxMjggMTI4IDEyOHptMC0yMTkuNmMtNTAuNiAwLTkxLjYgNDEtOTEuNiA5MS42czkxLjYgOTEuNiA5MS42IDkxLjYgOTEuNi00MSA5MS42LTkxLjYtNDEtOTEuNi05MS42LTkxLjZ6Ii8+PC9zdmc+;" vertex="1" parent="20">
          <mxGeometry x="20" y="40" width="60" height="60" as="geometry" />
        </mxCell>
        <mxCell id="22" value="GitHub Actions&lt;br&gt;CI/CD" style="shape=image;verticalLabelPosition=bottom;labelBackgroundColor=#ffffff;verticalAlign=top;aspect=fixed;imageAspect=0;image=data:image/svg+xml,PHN2ZyB4bWxucz0iaHR0cDovL3d3dy53My5vcmcvMjAwMC9zdmciIHZpZXdCb3g9IjAgMCAyNTYgMjU2Ij48cGF0aCBmaWxsPSIjMjQyOTJlIiBkPSJNMTI4IDI1NmM3MC43IDAgMTI4LTU3LjMgMTI4LTEyOFMxOTguNyAwIDEyOCAwIDAgNTcuMyAwIDEyOHM1Ny4zIDEyOCAxMjggMTI4Ii8+PHBhdGggZmlsbD0iI0ZGRiIgZD0iTTEyOCAyNTZjNzAuNyAwIDEyOC01Ny4zIDEyOC0xMjhTMTk4LjcgMCAxMjggMCAwIDU3LjMgMCAxMjhzNTcuMyAxMjggMTI4IDEyOHptMC0yMTkuNmMtNTAuNiAwLTkxLjYgNDEtOTEuNiA5MS42czkxLjYgOTEuNiA5MS42IDkxLjYgOTEuNi00MSA5MS42LTkxLjYtNDEtOTEuNi05MS42LTkxLjZ6Ii8+PC9zdmc+;" vertex="1" parent="20">
          <mxGeometry x="120" y="40" width="60" height="60" as="geometry" />
        </mxCell>
        <mxCell id="23" value="Docker Hub" style="points=[[0,0],[0.25,0],[0.5,0],[0.75,0],[1,0],[1,0.25],[1,0.5],[1,0.75],[1,1],[0.75,1],[0.5,1],[0.25,1],[0,1],[0,0.75],[0,0.5],[0,0.25]];outlineConnect=0;gradientColor=none;html=1;whiteSpace=wrap;fontSize=12;fontStyle=0;container=1;pointerEvents=0;collapsible=0;recursiveResize=0;shape=mxgraph.aws4.group;grIcon=mxgraph.aws4.group_corporate_data_center;strokeColor=#5A6C86;fillColor=#E6F2F8;verticalAlign=top;align=left;spacingLeft=30;fontColor=#5A6C86;dashed=0;" vertex="1" parent="1">
          <mxGeometry x="280" y="640" width="200" height="160" as="geometry" />
        </mxCell>
        <mxCell id="24" value="Images Docker&lt;br&gt;Repository privé" style="shape=image;verticalLabelPosition=bottom;labelBackgroundColor=#ffffff;verticalAlign=top;aspect=fixed;imageAspect=0;image=data:image/svg+xml,PHN2ZyB4bWxucz0iaHR0cDovL3d3dy53My5vcmcvMjAwMC9zdmciIHZpZXdCb3g9IjAgMCAyNTYgMjU2Ij48cGF0aCBmaWxsPSIjMGRiN2VkIiBkPSJNMTI4IDI1NmM3MC43IDAgMTI4LTU3LjMgMTI4LTEyOFMxOTguNyAwIDEyOCAwIDAgNTcuMyAwIDEyOHM1Ny4zIDEyOCAxMjggMTI4Ii8+PHBhdGggZmlsbD0iI0ZGRiIgZD0iTTEyOCAyNTZjNzAuNyAwIDEyOC01Ny4zIDEyOC0xMjhTMTk4LjcgMCAxMjggMCAwIDU3LjMgMCAxMjhzNTcuMyAxMjggMTI4IDEyOHptMC0yMTkuNmMtNTAuNiAwLTkxLjYgNDEtOTEuNiA5MS42czkxLjYgOTEuNiA5MS42IDkxLjYgOTEuNi00MSA5MS42LTkxLjYtNDEtOTEuNi05MS42LTkxLjZ6Ii8+PC9zdmc+;" vertex="1" parent="23">
          <mxGeometry x="70" y="40" width="60" height="60" as="geometry" />
        </mxCell>
        <mxCell id="25" value="Terraform Cloud" style="points=[[0,0],[0.25,0],[0.5,0],[0.75,0],[1,0],[1,0.25],[1,0.5],[1,0.75],[1,1],[0.75,1],[0.5,1],[0.25,1],[0,1],[0,0.75],[0,0.5],[0,0.25]];outlineConnect=0;gradientColor=none;html=1;whiteSpace=wrap;fontSize=12;fontStyle=0;container=1;pointerEvents=0;collapsible=0;recursiveResize=0;shape=mxgraph.aws4.group;grIcon=mxgraph.aws4.group_corporate_data_center;strokeColor=#5A6C86;fillColor=#E6F2F8;verticalAlign=top;align=left;spacingLeft=30;fontColor=#5A6C86;dashed=0;" vertex="1" parent="1">
          <mxGeometry x="520" y="640" width="200" height="160" as="geometry" />
        </mxCell>
        <mxCell id="26" value="State &amp; Secrets" style="shape=image;verticalLabelPosition=bottom;labelBackgroundColor=#ffffff;verticalAlign=top;aspect=fixed;imageAspect=0;image=data:image/svg+xml,PHN2ZyB4bWxucz0iaHR0cDovL3d3dy53My5vcmcvMjAwMC9zdmciIHZpZXdCb3g9IjAgMCAyNTYgMjU2Ij48cGF0aCBmaWxsPSIjNUM0RUU1IiBkPSJNMTI4IDI1NmM3MC43IDAgMTI4LTU3LjMgMTI4LTEyOFMxOTguNyAwIDEyOCAwIDAgNTcuMyAwIDEyOHM1Ny4zIDEyOCAxMjggMTI4Ii8+PHBhdGggZmlsbD0iI0ZGRiIgZD0iTTEyOCAyNTZjNzAuNyAwIDEyOC01Ny4zIDEyOC0xMjhTMTk4LjcgMCAxMjggMCAwIDU3LjMgMCAxMjhzNTcuMyAxMjggMTI4IDEyOHptMC0yMTkuNmMtNTAuNiAwLTkxLjYgNDEtOTEuNiA5MS42czkxLjYgOTEuNiA5MS42IDkxLjYgOTEuNi00MSA5MS42LTkxLjYtNDEtOTEuNi05MS42LTkxLjZ6Ii8+PC9zdmc+;" vertex="1" parent="25">
          <mxGeometry x="70" y="40" width="60" height="60" as="geometry" />
        </mxCell>
        <mxCell id="27" value="" style="edgeStyle=orthogonalEdgeStyle;rounded=0;orthogonalLoop=1;jettySize=auto;html=1;" edge="1" parent="1" source="22" target="2">
          <mxGeometry relative="1" as="geometry" />
        </mxCell>
        <mxCell id="28" value="" style="edgeStyle=orthogonalEdgeStyle;rounded=0;orthogonalLoop=1;jettySize=auto;html=1;" edge="1" parent="1" source="22" target="24">
          <mxGeometry relative="1" as="geometry" />
        </mxCell>
        <mxCell id="29" value="" style="edgeStyle=orthogonalEdgeStyle;rounded=0;orthogonalLoop=1;jettySize=auto;html=1;" edge="1" parent="1" source="22" target="26">
          <mxGeometry relative="1" as="geometry">
            <Array as="points">
              <mxPoint x="150" y="620" />
              <mxPoint x="550" y="620" />
            </Array>
          </mxGeometry>
        </mxCell>
        <mxCell id="30" value="" style="edgeStyle=orthogonalEdgeStyle;rounded=0;orthogonalLoop=1;jettySize=auto;html=1;" edge="1" parent="1" source="24" target="7">
          <mxGeometry relative="1" as="geometry" />
        </mxCell>
      </root>
    </mxGraphModel>
  </diagram>
</mxfile>]]>
